<?xml version="1.0" encoding="UTF-8"?><svg id="Layer_2" xmlns="http://www.w3.org/2000/svg" viewBox="0 0 248.17 248.17"><g id="Layer_1-2"><path fill="#ffffff" d="M220.54,173.47c-6.07-5.67-17.05-8.36-35.6-8.36-24.35,0-32.74,2.91-36.35,7.69h-1.05l1.98-14.68h71.02v-19.22H27.6v19.11h66.56v1.05l-63.26,61.4h37.05l53.98-54.6-2.46,21.98h25.05c2.68-3.26,8.39-4.54,26.8-4.54,22.83,0,27.14,1.86,27.14,8.74v1.75c0,6.64-5.01,8.62-26.56,8.62-17.24,0-22.95-1.28-25.4-5.47h-28.31c3.02,15.27,14.1,21.61,30.91,23.76h48.2c10.64-1.37,18.35-4.3,23.25-9.23v-37.97Z"/><path fill="#ffffff" d="M27.78,130.53h192.79V27.5H27.78v103.03ZM49.33,52.8h39.93c20.45,0,30.51,3.38,34.12,13.78v-13.78h39.93c26.74,0,35.73,5.77,35.73,25.47v1.5c0,19.7-8.02,25.47-34.76,25.47h-40.9v-13.35c-3.46,10.06-12.97,13.35-33.14,13.35h-40.9v-52.44Z"/><path fill="#ffffff" d="M176.11,79.24v-.3c0-9.07-1.95-11.31-17.98-11.31h-12.29v22.85h12.29c16.03,0,17.98-2.32,17.98-11.24Z"/><path fill="#ffffff" d="M102.07,79.24v-.3c0-9.07-1.95-11.31-17.98-11.31h-12.29v22.85h12.29c16.03,0,17.98-2.32,17.98-11.24Z"/></g></svg>