<?xml version="1.0" encoding="UTF-8"?><svg id="Layer_2" xmlns="http://www.w3.org/2000/svg" viewBox="0 0 181.98 56.1"><g id="Layer_1-2"><path fill="#ffffff" d="M121.94,0h-42.72v14.74C75.36,3.62,64.6,0,42.72,0H0v56.1h43.76c21.58,0,31.76-3.51,35.46-14.28v14.28h43.76c28.61,0,37.19-6.17,37.19-27.25v-1.6c0-21.08-9.62-27.25-38.23-27.25ZM56.42,28.29c0,9.54-2.08,12.02-19.23,12.02h-13.14V15.87h13.14c17.15,0,19.23,2.4,19.23,12.1v.32ZM135.64,28.29c0,9.54-2.08,12.02-19.23,12.02h-13.14V15.87h13.14c17.15,0,19.23,2.4,19.23,12.1v.32Z"/><path fill="#ffffff" d="M177.82,7.49v-.17c0-2.38-1.22-3.08-4.54-3.08h-7.83v8.62h3.69v-2.29h1.66l2.45,2.29h4.59l-2.61-2.44c1.87-.34,2.59-1.27,2.59-2.93ZM174.13,7.45c0,.65-.23.86-1.37.86h-3.62v-1.82h3.62c1.13,0,1.37.21,1.37.86v.1Z"/><path fill="#ffffff" d="M172.65.22h-2.77c-6.8,0-9.33,2.4-9.33,7.01v2.58c0,4.61,2.54,7.01,9.33,7.01h2.77c6.8,0,9.33-2.4,9.33-7.01v-2.58c0-4.61-2.54-7.01-9.33-7.01ZM181.08,9.23c0,4.45-1.68,6.78-8.83,6.78h-1.98c-7.15,0-8.8-2.33-8.8-6.78v-1.43c0-4.45,1.66-6.78,8.8-6.78h1.98c7.15,0,8.83,2.33,8.83,6.78v1.43Z"/></g></svg>