<?xml version="1.0" encoding="UTF-8"?><svg id="Layer_2" xmlns="http://www.w3.org/2000/svg" viewBox="0 0 479.61 111.83"><g id="Layer_1-2"><path fill="#ffffff" d="M0,111.03h206.26V.8H0v110.23ZM23.05,27.86h42.72c21.88,0,32.64,3.62,36.5,14.74v-14.74h42.72c28.61,0,38.23,6.17,38.23,27.25v1.6c0,21.08-8.58,27.25-37.19,27.25h-43.76v-14.28c-3.7,10.77-13.88,14.28-35.46,14.28H23.05V27.86Z"/><path fill="#ffffff" d="M158.69,56.16v-.32c0-9.7-2.08-12.1-19.23-12.1h-13.14v24.45h13.14c17.15,0,19.23-2.48,19.23-12.02Z"/><path fill="#ffffff" d="M79.47,56.16v-.32c0-9.7-2.08-12.1-19.23-12.1h-13.14v24.45h13.14c17.15,0,19.23-2.48,19.23-12.02Z"/><path fill="#ffffff" d="M422.75,35.44c-32.92,0-44.26,3.94-49.14,10.4h-1.42l2.68-19.85h96.08V0H210.02v25.83h89.99v1.42l-85.53,83.01h50.09l72.98-73.82-3.33,29.71h33.87c3.62-4.41,11.34-6.15,36.23-6.15,30.87,0,36.7,2.52,36.7,11.81v2.36c0,8.98-6.77,11.66-35.91,11.66-23.31,0-31.03-1.73-34.34-7.4h-38.28c5.36,27.09,29.45,33.39,65.21,33.39h19.06c42.53,0,62.85-10.24,62.85-38.12v-1.57c0-25.2-12.29-36.7-56.86-36.7Z"/></g></svg>