<?xml version="1.0" encoding="UTF-8"?><svg id="Layer_2" xmlns="http://www.w3.org/2000/svg" viewBox="0 0 560.57 42.81"><g id="Layer_1-2"><path fill="#ffffff" d="M547.42,19.23c-7.39,0-10.15-2.6-10.15-7.62v-2.81c0-5.01,2.76-7.62,10.15-7.62h3.01c7.39,0,10.15,2.61,10.15,7.62v2.81c0,5.01-2.76,7.62-10.15,7.62h-3.01ZM559.6,10.99v-1.55c0-4.84-1.83-7.37-9.59-7.37h-2.15c-7.77,0-9.57,2.53-9.57,7.37v1.55c0,4.83,1.8,7.36,9.57,7.36h2.15c7.77,0,9.59-2.53,9.59-7.36ZM556.07,14.92l-2.84-2.65c2.04-.37,2.82-1.38,2.82-3.18v-.19c0-2.58-1.32-3.34-4.94-3.34h-8.51v9.36h4.01v-2.49h1.8l2.66,2.49h4.99ZM546.62,8.01h3.93c1.23,0,1.48.23,1.48.94v.11c0,.71-.25.94-1.48.94h-3.93v-1.98Z"/><path fill="#ffffff" d="M309.89,42.22h-32.47V.59h31.69c21.23,0,28.36,4.58,28.36,20.22v1.19c0,15.64-6.36,20.22-27.59,20.22ZM295.27,12.37v18.14h9.75c12.73,0,14.27-1.84,14.27-8.92v-.24c0-7.2-1.55-8.98-14.27-8.98h-9.75Z"/><path fill="#ffffff" d="M342.49,42.22V.59h51.2v10.88h-33.36v4.46h33.36v10.88h-33.36v4.52h33.36v10.88h-51.2Z"/><path fill="#ffffff" d="M450.89,42.22l-3.98-7.31h-26.88l-3.98,7.31h-19.5L420.33.59h27.29l23.79,41.63h-20.52ZM426.04,24.02h14.87l-7.14-13.02h-.59l-7.14,13.02Z"/><path fill="#ffffff" d="M506.98,42.22h-32.47V.59h31.69c21.23,0,28.36,4.58,28.36,20.22v1.19c0,15.64-6.36,20.22-27.59,20.22ZM492.35,12.37v18.14h9.75c12.72,0,14.27-1.84,14.27-8.92v-.24c0-7.2-1.55-8.98-14.27-8.98h-9.75Z"/><path fill="#ffffff" d="M32.47,42.22H0V.59h31.69c21.23,0,28.36,4.58,28.36,20.22v1.19c0,15.64-6.36,20.22-27.59,20.22ZM17.84,12.37v18.14h9.75c12.72,0,14.27-1.84,14.27-8.92v-.24c0-7.2-1.55-8.98-14.27-8.98h-9.75Z"/><path fill="#ffffff" d="M157.83,42.81c-21.23,0-29.38-4.58-29.38-20.22v-2.38c0-15.64,8.15-20.22,29.38-20.22h6.18c21.23,0,29.37,4.58,29.37,20.22v2.38c0,15.64-8.15,20.22-29.37,20.22h-6.18ZM175.19,22.12v-1.37c0-6.6-1.49-8.98-13.68-8.98h-1.19c-12.19,0-13.68,2.38-13.68,8.98v1.37c0,6.54,1.49,8.92,13.68,8.92h1.19c12.19-.06,13.68-2.38,13.68-8.92Z"/><path fill="#ffffff" d="M198.39,42.22V.59h37.82c16.05,0,21.94,3.39,21.94,14.87v.83c0,10.35-5.77,14.87-21.94,14.87h-19.98v11.06h-17.84ZM216.23,11.48v8.8h17.48c5.47,0,6.6-1.01,6.6-4.16v-.48c0-3.15-1.13-4.16-6.6-4.16h-17.48Z"/><path fill="#ffffff" d="M122.71,42.22l-10.62-11.78c9.05-1.63,12.53-6.14,12.53-14.14v-.83c0-11.48-5.89-14.87-21.94-14.87h-37.82v41.63h17.84v-11.06h9.53l9.95,11.06h20.53ZM82.7,11.48h17.48c5.47,0,6.6,1.01,6.6,4.16v.48c0,3.15-1.13,4.16-6.6,4.16h-17.48v-8.8Z"/></g></svg>